Coordinates
version=1
nRows=11
nColumns=36
inDegrees=yes

Units are S.I. units (second, meters, Newtons, ...)
If the header above contains a line with 'inDegrees', this indicates whether rotational values are in degrees (yes) or radians (no).

endheader
time	pelvis_tilt	pelvis_list	pelvis_rotation	pelvis_tx	pelvis_ty	pelvis_tz	hip_flexion_r	hip_adduction_r	hip_rotation_r	knee_angle_r	knee_angle_r_beta	ankle_angle_r	subtalar_angle_r	mtp_angle_r	hip_flexion_l	hip_adduction_l	hip_rotation_l	knee_angle_l	knee_angle_l_beta	ankle_angle_l	subtalar_angle_l	mtp_angle_l	lumbar_extension	lumbar_bending	lumbar_rotation	arm_flex_r	arm_add_r	arm_rot_r	elbow_flex_r	pro_sup_r	arm_flex_l	arm_add_l	arm_rot_l	elbow_flex_l	pro_sup_l
      2.90000000	    -15.07299728	     -2.76498320	      0.24719167	      1.53486337	      1.30126417	     -0.46101692	      3.04211678	     -3.05966947	    -16.32883611	      0.99720171	      0.01740445	    -16.21474560	      6.88528103	     -7.49999987	      0.47854714	     -6.22525232	    -13.45670506	      1.39575928	      0.02436060	    -21.28889971	      7.83886833	     -7.49999987	     16.52086621	      3.66788430	      7.12038008	     58.79998272	    -26.63839073	     22.71720245	     88.01797199	     94.64431917	     58.55086701	    -22.96478507	     17.52394650	    101.23425881	     83.08926187
      2.91666670	    -15.00090643	     -2.83777118	      0.41174958	      1.53626060	      1.29967985	     -0.46189932	      3.51908423	     -2.89861828	    -15.48724735	      1.43404702	      0.02502884	    -13.12591510	      6.53918267	     -7.49999987	      0.77823890	     -6.18520918	    -12.57565259	      1.87019041	      0.03264098	    -19.44659811	      7.25503985	     -7.49999987	     16.57347640	      4.10043807	      5.94457472	     58.03931458	    -25.41602708	     22.67109083	     85.73669145	     95.11037419	     52.89138360	    -27.01211719	     14.04961080	    105.33847349	     82.21087203
      2.93333330	    -14.94625828	     -2.67178577	      0.70837060	      1.53803997	      1.31626594	     -0.46676482	      3.96447379	     -3.06981361	    -14.96056132	      1.35964054	      0.02373020	     -9.01455338	      6.63346164	     -7.49999987	      1.65548251	     -5.93812404	    -12.14226764	      2.20393610	      0.03846594	    -17.70452510	      6.62068198	     -7.49999987	     16.16728039	      4.08976585	      4.84022164	     57.25822155	    -24.31469274	     22.79420547	     83.01572489	     94.04049270	     47.57033448	    -29.21731707	     10.23979803	    108.23556231	     79.69787223
      2.95000000	    -14.71603180	     -2.51432401	      0.79241339	      1.53900738	      1.31659485	     -0.46744363	      4.40843024	     -3.18978654	    -14.43901737	      1.48283648	      0.02588038	     -4.99228670	      6.79085544	     -7.49999987	      2.36767489	     -5.85965129	    -11.89099472	      2.52004646	      0.04398311	    -15.18958883	      6.16315334	     -7.49999987	     15.26008864	      3.86551442	      4.68287837	     57.06946503	    -23.89271650	     22.08287455	     80.08089313	     91.40971600	     45.65106547	    -30.56093149	      9.02870097	    107.32116545	     77.28032000
      2.96666670	    -14.16384524	     -2.33616591	      1.09010920	      1.54458779	      1.31642264	     -0.46527355	      4.38162984	     -3.23659042	    -14.02658341	      1.74858778	      0.03051861	     -1.77629391	      6.43215381	     -7.49999987	      2.77940556	     -5.79941065	    -11.35228644	      3.09710890	      0.05405475	    -12.77936013	      5.20211034	     -7.49999987	     14.15511251	      3.53697940	      3.67977417	     57.65242254	    -22.39979647	     22.39718175	     76.82585456	     92.04722728	     43.53029478	    -32.44036392	      7.07517345	    107.63378625	     76.68799386
      2.98333330	    -13.53319975	     -2.27833439	      1.27326427	      1.54991070	      1.31743607	     -0.46863897	      4.11469990	     -3.19916934	    -13.45172030	      1.99025527	      0.03473651	      1.14559853	      6.10207444	     -7.49999987	      2.88484390	     -5.76797988	    -11.02227132	      3.37224528	      0.05885678	     -9.72522684	      4.97433233	     -7.49999987	     12.99577008	      3.31084807	      3.66719914	     57.78297204	    -21.92137850	     21.91592522	     74.42458041	     90.90696549	     42.57089316	    -32.82945181	      6.28121140	    106.91504953	     75.64499768
      3.00000000	    -13.12159401	     -2.14741769	      1.35934259	      1.55000646	      1.31996461	     -0.46877169	      4.04728108	     -3.17539549	    -12.45937931	      2.06187977	      0.03598659	      3.72005274	      5.71973657	     -7.49999987	      3.21171364	     -5.65923993	    -10.11777977	      3.50920425	      0.06124717	     -6.60257532	      4.53926829	     -7.49999987	     11.88731747	      2.58364555	      3.46389006	     56.34144305	    -22.73030121	     21.75591748	     73.97283513	     90.97959850	     40.83316555	    -33.82821349	      6.03649856	    106.05373162	     75.64132717
      3.01666670	    -12.77692978	     -1.98083037	      1.49740276	      1.55430830	      1.31180703	     -0.47214893	      3.90679041	     -3.26029510	    -11.81200923	      2.08438610	      0.03637940	      5.90500812	      5.88099978	     -7.49999987	      3.63269216	     -5.54314792	     -9.81743447	      3.75002640	      0.06545031	     -4.00199861	      4.54633825	     -7.49999987	     11.06033208	      2.18475399	      2.30685598	     55.89448330	    -22.02347282	     21.94640661	     72.37956790	     92.40828888	     37.93793763	    -35.09897396	      3.02973139	    107.03440388	     75.96645972
      3.03333330	    -12.49821226	     -1.92631498	      1.55704526	      1.55818080	      1.31731429	     -0.46908120	      3.68135105	     -3.07041616	    -11.27982347	      1.73856953	      0.03034376	      7.34149579	      6.42179662	     -7.49999987	      3.95755247	     -5.68397989	     -9.26293215	      3.52714756	      0.06156034	     -2.69759887	      4.43889314	     -7.49999987	     10.33902850	      1.55219882	      2.85781277	     53.94366292	    -22.39861275	     21.58990919	     71.04435169	     90.45553427	     36.57107376	    -34.18975270	      3.19963859	    105.71436082	     74.95316685
      3.05000000	    -12.06725210	     -1.88284136	      1.58296003	      1.56210630	      1.30708458	     -0.47224172	      3.54691391	     -2.94691832	    -10.66098563	      1.99236648	      0.03477335	      8.45176071	      6.32462164	     -7.49999987	      4.21543130	     -5.80580883	     -9.03771230	      3.77858551	      0.06594876	     -1.04879213	      4.42559686	     -7.49999987	      9.49187866	      1.07274884	      3.15120725	     52.21060766	    -22.85704861	     21.28673095	     70.05594670	     89.00882131	     35.35069782	    -33.76910549	      3.04976928	    104.80099804	     74.38360580
      3.06666670	    -11.63992805	     -1.89696602	      1.73386380	      1.56947767	      1.30020574	     -0.47269099	      3.44441547	     -2.83578956	    -10.31055137	      2.26345900	      0.03950481	      9.58523777	      6.24239898	     -7.49999987	      4.51770800	     -5.93783385	     -8.75452253	      4.12496183	      0.07199417	      0.19480134	      4.36032228	     -7.49999987	      8.67165803	      0.80015930	      3.24856848	     50.28847604	    -22.56982939	     20.41351804	     68.97716213	     91.20362807	     33.06328151	    -33.27997558	      2.06680190	    103.33468780	     77.54368745
